Coordinates
version=1
nRows=17
nColumns=36
inDegrees=yes

Units are S.I. units (second, meters, Newtons, ...)
If the header above contains a line with 'inDegrees', this indicates whether rotational values are in degrees (yes) or radians (no).

endheader
time	pelvis_tilt	pelvis_list	pelvis_rotation	pelvis_tx	pelvis_ty	pelvis_tz	hip_flexion_r	hip_adduction_r	hip_rotation_r	knee_angle_r	knee_angle_r_beta	ankle_angle_r	subtalar_angle_r	mtp_angle_r	hip_flexion_l	hip_adduction_l	hip_rotation_l	knee_angle_l	knee_angle_l_beta	ankle_angle_l	subtalar_angle_l	mtp_angle_l	lumbar_extension	lumbar_bending	lumbar_rotation	arm_flex_r	arm_add_r	arm_rot_r	elbow_flex_r	pro_sup_r	arm_flex_l	arm_add_l	arm_rot_l	elbow_flex_l	pro_sup_l
      0.00000000	     -1.06901133	      1.53178885	     10.84205679	     -1.06314090	      1.34076390	     -0.07691415	      8.23718524	     -1.84820201	      0.76665690	     21.44992329	      0.37437179	      0.23751877	    -28.78496921	     -6.62501226	      5.48174499	      3.23406479	      7.20447267	     11.45673494	      0.19995775	      4.72199860	     -7.90344804	     -6.62501226	    -19.32880286	      4.44250965	     14.74146833	     12.58854954	    -11.17218366	     31.31727777	     37.70514012	     82.27063403	    -11.36278695	     -8.50628479	     11.16197100	    104.61229306	     97.80500109
      0.01694910	     -2.26437051	      2.66566474	      9.96268014	     -1.06404570	      1.33807360	     -0.07409622	     11.45216162	     -3.14164580	      0.77646139	     25.57097588	      0.44629772	      6.64796276	    -26.49494864	     -6.76328648	      7.73176354	      5.14206400	      8.11371573	     13.63040229	      0.23789540	      7.29993083	     -8.07780435	     -6.76328648	    -18.38693451	      2.68986523	     15.36670956	     12.93788046	    -10.71269151	     31.13576035	     36.71316828	     80.88680785	    -11.18411319	     -9.32778089	     12.35835709	    105.10050112	     97.04803483
      0.03389830	     -3.28764164	      3.17632495	      9.93422269	     -1.07053661	      1.33676199	     -0.06865726	     13.19903554	     -3.73156055	      0.26489542	     26.75349153	      0.46693651	      7.93103411	    -27.43018564	     -6.78339113	      9.14030509	      5.65960833	      8.48735143	     13.75767417	      0.24011671	      8.18974425	     -7.99617364	     -6.78339113	    -18.28846045	      1.53405061	     16.02263789	     13.19885447	    -10.47406474	     30.53417692	     35.45627988	     81.51340984	    -11.13389837	    -10.22889027	     12.95621359	    105.32887234	     97.56693420
      0.05084750	     -2.96077538	      3.55139262	      9.62172796	     -1.06482382	      1.33337908	     -0.07265581	     13.34049110	     -4.17822284	      0.15773994	     27.94217966	      0.48768304	      8.93183504	    -27.02595097	     -6.81312863	      8.37168968	      6.02716974	      9.07209704	     13.34691610	      0.23294763	      8.88396974	     -8.05009189	     -6.81312863	    -19.38179120	      1.32598845	     16.85179296	     12.91992444	    -10.29465250	     29.72053481	     33.00497661	     80.65046501	    -11.00482139	    -10.60442311	     13.96832285	    104.57213754	     95.67124538
      0.06779660	     -3.58523861	      3.56451816	     10.02588287	     -1.07879631	      1.33383870	     -0.06288678	     15.07264112	     -4.24265152	     -0.34083347	     29.18161132	      0.50931520	      9.31271549	    -27.30960824	     -6.83007971	      9.89500519	      6.09908980	      9.69872955	     14.23237820	      0.24840186	      8.71520118	     -8.77137547	     -6.83007971	    -20.30453695	      1.35275945	     16.89672173	     13.55914870	     -9.22403332	     28.16976696	     30.07872173	     81.70208623	    -10.42270470	    -11.05286931	     14.17449284	    104.50688134	     96.67151136
      0.08474580	     -3.97057514	      3.68254896	     10.32756855	     -1.08625310	      1.32967062	     -0.06624330	     17.05114457	     -4.70689138	     -0.98875059	     31.23089921	      0.54508202	      9.75799766	    -26.92883430	     -7.01770764	     11.35027836	      6.38880477	      9.94408501	     15.39912340	      0.26876541	      8.81650964	     -8.83536847	     -7.01770764	    -21.43048414	      1.69217924	     16.98137852	     13.70770904	     -8.55519630	     22.40694379	     28.08483704	     93.14764531	     -9.33860918	    -11.34760819	     13.82659475	    104.56157127	    102.94353643
      0.10169490	     -4.53620020	      3.72626070	     10.83798530	     -1.09276958	      1.32240092	     -0.06247788	     19.50128705	     -5.21011317	     -1.80088062	     33.80337461	      0.58998019	     10.55644101	    -26.60722115	     -7.05036724	     13.34089337	      6.61511289	     10.00858034	     17.02838299	      0.29720135	      9.20499536	     -8.79191733	     -7.05036724	    -22.50158945	      2.03196020	     16.94877243	     14.67567263	     -8.43431462	     21.51577752	     26.60209965	     91.79622932	     -7.87719603	    -12.23274987	     14.63211505	    104.73563209	    100.87780259
      0.11864410	     -5.10793416	      3.77130753	     11.29473120	     -1.10001196	      1.32542333	     -0.06643198	     21.53932415	     -5.89741995	     -2.63075615	     35.54339676	      0.62034930	     10.83106844	    -25.97817577	     -7.06391052	     15.10488077	      7.01490625	     10.16885980	     18.24118983	      0.31836882	      9.20815238	     -8.68239841	     -7.06391052	    -23.54233313	      2.62412733	     16.83880092	     15.62137532	     -8.94156670	     21.11209143	     25.30667446	     91.91131316	     -6.78587413	    -12.44658501	     14.89271019	    103.88603072	    100.87269379
      0.13559320	     -5.44993239	      3.87325379	     11.36799087	     -1.09901449	      1.32089861	     -0.06756626	     23.02923063	     -6.57622335	     -3.25553110	     37.13675212	      0.64815860	     11.57197943	    -24.81318101	     -7.07700013	     16.57082299	      7.33963820	      9.79096902	     19.81656834	      0.34586436	      9.65782756	     -8.29577887	     -7.07700013	    -24.68437704	      3.10758962	     17.16760506	     16.35843380	     -9.61228046	     20.48670667	     24.35310782	     91.85381081	     -6.66836435	    -12.38688725	     14.66765604	    103.14359687	    100.75974603
      0.15254240	     -5.60836731	      4.05725117	     11.26262640	     -1.09945856	      1.31657465	     -0.06696387	     24.08627194	     -7.14623074	     -3.63982743	     38.64061090	      0.67440589	     12.23995679	    -23.95606266	     -7.12523957	     17.51737326	      7.55001744	      9.18170002	     21.16714313	      0.36943634	     10.14829637	     -8.18759912	     -7.12523957	    -25.81656631	      3.31919865	     17.69272452	     16.81818826	    -10.19237105	     19.77021246	     23.83525695	     90.33928408	     -6.64698111	    -12.42823244	     14.44157182	    101.89867743	     98.74210011
      0.16949150	     -6.15654933	      4.00737723	     11.11993603	     -1.10492997	      1.31615875	     -0.07193497	     25.22003581	     -7.73402765	     -4.24493225	     39.31792855	      0.68622731	     12.56776555	    -22.71654111	     -7.13150950	     18.80218823	      7.79933013	      8.83644274	     22.24029845	      0.38816643	     10.41309784	     -8.23320635	     -7.13150950	    -26.39323226	      3.90558611	     17.86979536	     17.37215329	    -10.95683272	     19.45705956	     23.81953103	     90.43076173	     -7.03978770	    -12.03041359	     14.32052703	    100.20509335	     99.04281715
      0.18644070	     -6.38832483	      4.09533128	     10.86689227	     -1.10544390	      1.31574978	     -0.07086443	     25.71712505	     -8.21560300	     -4.68127102	     39.55292519	      0.69032877	     13.04458896	    -21.25928370	     -7.15524268	     19.37149200	      7.97151143	      8.48339323	     22.72582148	      0.39664041	     10.46770713	     -8.21391150	     -7.15524268	    -27.15704467	      4.27432154	     18.34051343	     17.88632454	    -11.64094074	     19.05447468	     23.80554440	     89.40130497	     -6.93061129	    -12.01181637	     14.31345814	     97.94083579	     98.14259149
      0.20338980	     -6.49547480	      4.13778299	     11.09860854	     -1.10471507	      1.31173687	     -0.07125640	     25.82192294	     -8.66225198	     -5.30773252	     39.74518292	      0.69368430	     13.65168707	    -20.35153651	     -7.21800371	     19.82449115	      8.16881517	      8.43508713	     23.30418304	      0.40673472	     10.72944374	     -7.84673438	     -7.21800371	    -27.57007529	      4.67333663	     18.34180215	     18.12515141	    -11.91346879	     18.57177867	     23.62095398	     89.61020614	     -5.51390926	    -12.60458502	     15.84110629	     95.05892709	    100.24194720
      0.22033900	     -6.66213112	      4.35008430	     11.13056779	     -1.10552443	      1.30758563	     -0.07064938	     26.28066768	     -9.16570151	     -5.60118215	     40.41895896	      0.70544391	     14.29070468	    -19.60845663	     -7.24429687	     20.34530190	      8.47322126	      8.22709051	     23.93257366	      0.41770221	     11.15219763	     -7.55041001	     -7.24429687	    -28.05384310	      4.74795346	     18.18209039	     18.13635452	    -11.75241583	     17.48719922	     23.77465056	     87.96143376	     -4.25246467	    -13.56138070	     17.27577116	     92.59010137	     98.45524479
      0.23728810	     -6.75042500	      4.64959539	     10.94097290	     -1.11157042	      1.30770908	     -0.07518184	     27.04682751	     -9.89314805	     -5.74720732	     41.44556136	      0.72336151	     14.77991594	    -18.54231933	     -7.25174501	     20.74774362	      8.98927530	      8.09465989	     24.36329690	      0.42521975	     11.32350381	     -7.64241575	     -7.25174501	    -28.59361057	      4.92127995	     17.78727394	     18.60750608	    -11.73396129	     17.08258294	     23.97569444	     88.12526958	     -3.13629065	    -14.30660952	     18.44472766	     90.83975623	     98.86811659
      0.25423730	     -7.36539239	      4.74874404	     10.87354359	     -1.12565803	      1.30647394	     -0.08304676	     28.70208751	    -10.64128202	     -5.60308727	     42.27171265	      0.73778057	     14.63985195	    -18.01568649	     -7.26006128	     22.18043249	      9.73385384	      8.30505647	     24.94803872	      0.43542542	     10.86328175	     -8.65807836	     -7.26006128	    -28.58298350	      5.57724181	     17.52878465	     19.11879575	    -12.46319383	     16.68849487	     24.68215017	     88.27068281	     -1.82030195	    -14.53251793	     20.17475537	     89.26957484	     99.26459510
      0.27118640	     -7.54022421	      5.02812037	     10.73821252	     -1.12439605	      1.30218891	     -0.08301298	     29.74320550	    -11.45541661	     -5.64257738	     43.23380651	      0.75457227	     14.82460556	    -17.11380397	     -7.26906289	     22.90591130	     10.33017535	      8.22794855	     25.38687312	      0.44308452	     10.87531666	     -9.18208317	     -7.26906289	    -29.04863678	      5.78993463	     17.30128062	     19.62141562	    -12.91619734	     16.24710518	     25.22095505	     88.32249474	     -1.02717676	    -14.60642225	     21.11400652	     87.95584483	     99.35334253
